<svg id="flat" height="512" viewBox="0 0 512 512" width="512" xmlns="http://www.w3.org/2000/svg"><path d="m392 168-40 136h128l-40-136z" fill="#f5714f"/><path d="m392 168h48l8-24 8-8-8-48h-64l-8 48 8 8z" fill="#ef5e3b"/><path d="m256 64h16v24h-16z" fill="#bed3f7"/><path d="m136 256v152h-48v-50.286l-19.556 50.286h-44.444l40-128v-24z" fill="#718799"/><path d="m232 152v32l-28.68994 28.68994a38.62742 38.62742 0 0 1 -54.62012 0l-4.64994-4.64994a25.6136 25.6136 0 0 1 -3.32007 5.36987 26.20159 26.20159 0 0 1 -4.71993 4.56013v38.03h-88l-13.51-18.02a52.42081 52.42081 0 0 1 -3.02-58.42993l7.21-12.01a31.99737 31.99737 0 0 1 27.44-15.54007h64.63a31.99538 31.99538 0 0 1 22.62 9.37012l22.63 22.62988 24.89-14.22z" fill="#ffceb6"/><path d="m216 200-12.68994 12.68994a38.62742 38.62742 0 0 1 -54.62012 0l-4.64994-4.64994a25.6136 25.6136 0 0 1 -3.32007 5.36987 26.20159 26.20159 0 0 1 -4.71993 4.56013v38.03h-88l-13.51-18.02a52.42081 52.42081 0 0 1 -3.02-58.42993l7.21-12.01a31.99737 31.99737 0 0 1 27.44-15.54007h64.63a31.99538 31.99538 0 0 1 22.62 9.37012l22.63 22.62988 24.89-14.22z" fill="#548aff"/><path d="m56 152a27.31368 27.31368 0 0 0 8-19.31369v-12.68631a40 40 0 0 1 40-40 40 40 0 0 1 40 40v12.6863a27.31368 27.31368 0 0 0 8 19.3137z" fill="#c47220"/><path d="m61.26689 236.42245-12.42216-24.84433a8.00032 8.00032 0 0 1 .499-8.01564l11.56247-17.3437a7.99986 7.99986 0 0 1 11.0938-2.21878 7.99985 7.99985 0 0 1 2.21881 11.09373l-8.9874 13.48144 10.34622 20.69173a7.99984 7.99984 0 0 1 -3.5772 10.73283l-.00026.00014a7.99985 7.99985 0 0 1 -10.73328-3.57742z" fill="#4976f2"/><path d="m136 440 24 24v8h-56v-32z" fill="#e0edff"/><path d="m112 128v36a12 12 0 1 1 -24 0v-36z" fill="#ffceb6"/><path d="m112 128v32h-4a11.99677 11.99677 0 0 1 -12-12v-20z" fill="#ffbfa1"/><path d="m232 168-32 96h128l-32-96z" fill="#ffa100"/><path d="m232 168h64v-24l7.51473-7.51473a28.97051 28.97051 0 0 0 8.48527-20.48527 28.97051 28.97051 0 0 0 -8.48527-20.48526l-7.51473-7.51474h-64l-7.51473 7.51473a28.97051 28.97051 0 0 0 -8.48527 20.48527 28.97051 28.97051 0 0 0 8.48527 20.48526l7.51473 7.51474z" fill="#ffb401"/><path d="m280 88v8l-16 24-16-24v-8z" fill="#e0edff"/><circle cx="264" cy="56" fill="#e0edff" r="16"/><path d="m248 264h32v176h-32z" fill="#bed3f7"/><path d="m328 472h-128l16-32h96z" fill="#e0edff"/><path d="m400 304h32v136h-32z" fill="#bed3f7"/><path d="m480 472h-128l16-32h96z" fill="#e0edff"/><path d="m56 440 24 24v8h-56v-32z" fill="#e0edff"/><path d="m74.89179 318.857h50.21642a8 8 0 0 1 8 8 8 8 0 0 1 -8 8h-50.21642a7.99995 7.99995 0 0 1 -7.99995-7.99995 8 8 0 0 1 8-8z" fill="#62798c" transform="matrix(.362 -.932 .932 .362 -240.877 301.596)"/><g fill="#ffceb6"><path d="m56 440h-32l8-32h36.444z"/><path d="m104 408h32v32h-32z"/><path d="m72 240-24 16 17.0807 22.77426a16 16 0 0 0 17.85965 5.57893l13.05965-4.35319-8-16 5.93551-5.93551a7.04861 7.04861 0 0 0 2.06449-4.98412 7.04862 7.04862 0 0 0 -4.81965-6.68691z"/></g><path d="m400 88h-22.11146a16 16 0 0 0 -14.31083 8.84458l-19.57771 39.15542h32a24 24 0 0 0 24-24z" fill="#ffb0a1"/><path d="m432 88h22.11146a16 16 0 0 1 14.31083 8.84458l19.57771 39.15542h-32a24 24 0 0 1 -24-24z" fill="#ffb0a1"/><path d="m120 120h-24l-8 8v8a16 16 0 0 0 16 16 16 16 0 0 0 16-16z" fill="#ffceb6"/><path d="m136.00732 225.96875a7.99211 7.99211 0 0 1 -6.85586-3.86453 8.09558 8.09558 0 0 1 2.10069-10.57441 17.98091 17.98091 0 0 0 7.05055-16.341 18.57244 18.57244 0 0 0 -5.45813-11.03038l-3.618-3.61835a7.99991 7.99991 0 0 1 .00076-11.31381 7.99992 7.99992 0 0 1 11.31325.00063l3.91742 3.91762a33.98082 33.98082 0 0 1 -3.66211 51.22852 7.96747 7.96747 0 0 1 -4.78857 1.59571z" fill="#4976f2"/><path d="m408 64h16v24h-16z" fill="#bed3f7"/><circle cx="416" cy="56" fill="#e0edff" r="16"/></svg>