<svg height="511pt" viewBox="-30 0 511 511.99997" width="511pt" xmlns="http://www.w3.org/2000/svg"><path d="m292.117188 487.664062c-28.484376 22.375-62.46875 27.398438-94.695313 22.757813-37.851563-5.445313-74.433594-22.9375-111.503906-35.75-27.984375-9.671875-56.984375-16.683594-85.417969-13.773437 12.070312-106.445313 44.066406-218.128907 64.453125-252.765626-7.484375-35.734374-19.4375-84.3125-21.820313-106.75-2.40625-22.5625-.75-79.332031-.175781-96.433593.09375-2.761719 2.359375-4.949219 5.121094-4.949219h18.132813c2.828124 0 5.125 2.296875 5.125 5.125v19.671875c0 20.179687 8.175781 38.453125 21.398437 51.675781 13.277344 13.28125 31.648437 21.46875 51.929687 21.398438 40.441407-.136719 72.824219-33.722656 72.824219-74.160156v-18.585938c0-2.828125 2.296875-5.125 5.125-5.125h18.128907c2.765624 0 5.03125 2.1875 5.125 4.949219.574218 17.101562 2.226562 73.871093-.175782 96.433593-2.355468 22.128907-14.003906 69.414063-21.511718 105.277344 22.011718 36.019532 58.621093 165.757813 67.9375 281.003906zm0 0" fill="#ffe1d7"/><path d="m224.175781 206.660156c7.511719-35.867187 19.160157-83.148437 21.515625-105.277344 2.402344-22.566406.746094-79.332031.171875-96.433593-.089843-2.761719-2.355469-4.949219-5.121093-4.949219h-18.128907c-2.832031 0-5.125 2.296875-5.125 5.125v18.585938c0 .757812-.035156 1.511718-.058593 2.265624.507812 24.191407.867187 58.917969-.679688 75.40625-2.078125 22.128907-12.351562 69.410157-18.976562 105.277344 19.417968 36.019532 51.707031 165.757813 59.921874 281.003906-16.121093 14.359376-34.238281 21.5625-52.660156 23.660157 29.910156 2.835937 60.828125-3.039063 87.078125-23.660157-9.3125-115.242187-45.921875-244.984374-67.9375-281.003906zm0 0" fill="#ffd2c0"/><path d="m64.640625 206.660156c.105469.492188.210937.988282.3125 1.472656-20.386719 34.636719-52.382813 146.320313-64.453125 252.765626 28.433594-2.910157 57.429688 4.101562 85.414062 13.773437 37.070313 12.816406 73.65625 30.304687 111.507813 35.75 32.226563 4.640625 66.207031-.382813 94.691406-22.757813-9.3125-115.246093-45.921875-244.984374-67.9375-281.003906zm0 0" fill="#8cbafa"/><g fill="#5692d8"><path d="m224.175781 206.660156h-26.398437c19.414062 36.019532 51.703125 165.757813 59.917968 281.003906-16.121093 14.359376-34.234374 21.5625-52.660156 23.660157 31.625 2.996093 61.996094-3.957031 87.082032-23.660157-6.269532-77.515624-37.492188-231.183593-67.941407-281.003906zm0 0"/><path d="m169.203125 208.382812c2.988281 12.632813 6.679687 36.96875 10.394531 68.523438.449219 3.816406 3.6875 6.621094 7.4375 6.621094.292969 0 .589844-.015625.886719-.050782 4.113281-.484374 7.058594-4.210937 6.574219-8.324218-3.625-30.757813-7.261719-54.929688-10.300782-68.492188h-15.1875c0 .570313.058594 1.144532.195313 1.722656zm0 0"/><path d="m103.648438 283.476562c.300781.035157.59375.054688.886718.054688 3.75-.003906 6.992188-2.808594 7.441406-6.625 3.574219-30.378906 7.164063-54.214844 10.101563-67.109375.167969-.746094.222656-1.515625.160156-2.273437l-.066406-.863282h-15.015625c0 .191406 0 .378906.015625.574219l.027344.355469c-3.003907 13.617187-6.585938 37.515625-10.121094 67.5625-.484375 4.113281 2.457031 7.839844 6.570313 8.324218zm0 0"/></g><path d="m411.890625 247.050781c-27.925781 0-43.882813 19.257813-60.5625 55.847657-16.140625 35.402343-42.148437 80.53125-69.03125 80.53125-15.382813 0-23.761719-12.96875-28.480469-23.5-1.167968-2.605469-3.992187-4.054688-6.777344-3.445313-67.949218 14.910156-75.652343 62.445313-76.15625 79.675781-.105468 3.476563 2.632813 6.316406 6.109376 6.316406h123.746093c3.5 0 6.636719-2.222656 7.738281-5.546874 15.253907-46.152344 63.957032-93.5 83.832032-93.5 5.078125 5.351562 5.078125 28.375 5.078125 40.34375v52.523437c0 3.414063 2.765625 6.179687 6.179687 6.179687h12.792969c3.414063 0 6.183594-2.765624 6.183594-6.179687v-52.523437c0-26.835938 21.261719-43.519532 21.261719-71.804688 0-39.53125-15.230469-64.917969-31.914063-64.917969zm0 0" fill="#ed5176"/><path d="m419.101562 247.050781c-3.648437 0-7.085937.335938-10.351562.988281 14.328125 4.996094 26.289062 28.902344 26.289062 63.925782 0 28.289062-21.265624 44.96875-21.265624 71.804687v52.523438c0 2.863281-1.949219 5.265625-4.589844 5.96875.511718.132812 1.042968.210937 1.59375.210937h12.792968c3.414063 0 6.183594-2.765625 6.183594-6.179687v-52.523438c0-26.835937 21.261719-43.515625 21.261719-71.804687 0-39.527344-15.230469-64.914063-31.914063-64.914063zm0 0" fill="#ba365f"/><path d="m292.148438 65.417969-23.011719 54.167969c-1.007813 2.367187-.558594 5.101562 1.152343 7.023437l84.558594 94.917969c2.644532 2.964844 7.285156 2.964844 9.929688 0l84.558594-94.917969c1.710937-1.921875 2.160156-4.65625 1.152343-7.023437l-23.007812-54.167969c-1.042969-2.453125-3.453125-4.046875-6.121094-4.046875h-123.09375c-2.664063-.003906-5.074219 1.59375-6.117187 4.046875zm0 0" fill="#c8e7f7"/><path d="m450.554688 119.75h-59.929688c0-.050781 0-.113281-.015625-.164062l-7.808594-54.175782c-.351562-2.441406-1.179687-4.035156-2.082031-4.035156h40.632812c2.671876 0 5.078126 1.59375 6.132813 4.035156l23.003906 54.175782c.027344.050781.050781.113281.066407.164062zm0 0" fill="#add9ea"/><path d="m338.90625 61.375c-.902344 0-1.730469 1.59375-2.082031 4.035156l-7.808594 54.175782c-.011719.050781-.011719.113281-.011719.164062h-59.933594c.015626-.050781.039063-.113281.066407-.164062l23.003906-54.175782c1.054687-2.441406 3.460937-4.035156 6.132813-4.035156zm0 0" fill="#def6ff"/><path d="m449.339844 126.609375-84.554688 94.921875c-1.328125 1.476562-3.148437 2.21875-4.964844 2.21875.613282 0 1.230469-.742188 1.679688-2.21875l28.722656-94.921875c.578125-1.882813.726563-4.527344.402344-6.859375h59.929688c.914062 2.332031.449218 4.976562-1.214844 6.859375zm0 0" fill="#90c7d3"/><path d="m390.222656 126.609375-28.722656 94.921875c-.453125 1.476562-1.066406 2.21875-1.679688 2.21875-.628906 0-1.242187-.742188-1.695312-2.21875l-28.722656-94.921875c-.5625-1.882813-.726563-4.527344-.402344-6.859375h61.621094c.328125 2.332031.179687 4.976562-.398438 6.859375zm0 0" fill="#add9ea"/></svg>